
<svg width="48px" height="48px" viewBox="0 0 48 48" version="1.1" xmlns="http://www.w3.org/2000/svg" xmlns:xlink="http://www.w3.org/1999/xlink">
    <!-- Generator: Sketch 48.2 (47327) - http://www.bohemiancoding.com/sketch -->
    <desc>Created with Sketch.</desc>
    <defs></defs>
    <g id="Page-1" stroke="none" stroke-width="1" fill="none" fill-rule="evenodd">
        <g id="noun_175066_cc" fill-rule="nonzero">
            <g id="Group">
                <path d="M12.2,24.6 L35.7,24.6 C36,24.6 36.1,24.3 36,24.1 L31.8,15.8 C31.7,15.7 31.6,15.6 31.5,15.6 L16.4,15.6 C16.3,15.6 16.1,15.7 16.1,15.8 L11.9,24.1 C11.8,24.3 12,24.6 12.2,24.6 Z" id="Shape" fill="#F5A623"></path>
                <path d="M42.1,36.1 L37.9,27.8 C37.8,27.7 37.7,27.6 37.6,27.6 L10.4,27.6 C10.3,27.6 10.1,27.7 10.1,27.8 L5.9,36.1 C5.8,36.3 6,36.6 6.2,36.6 L41.7,36.6 C42,36.6 42.2,36.3 42.1,36.1 Z" id="Shape" fill="#F8E71C"></path>
                <path d="M30.1,12.1 L24.3,0.6 C24.2,0.3 23.8,0.3 23.7,0.6 L17.9,12.1 C17.8,12.3 18,12.6 18.2,12.6 L29.7,12.6 C30,12.6 30.2,12.3 30.1,12.1 Z" id="Shape" fill="#D0021B"></path>
                <path d="M4.1,39.8 L0.4,47.1 C0.3,47.3 0.5,47.6 0.7,47.6 L47.2,47.6 C47.5,47.6 47.6,47.3 47.5,47.1 L43.8,39.8 C43.7,39.7 43.6,39.6 43.5,39.6 L4.4,39.6 C4.3,39.6 4.1,39.7 4.1,39.8 Z" id="Shape" fill="#7ED321"></path>
            </g>
        </g>
    </g>
</svg>